:SAMPLES-PER-SECOND 25
:FULLY-SPECIFIED
:DEGREES
197
root  6.97075 75.0909 -5.89172 -179.888 -3.28625 -176.417
RightUpLeg  -8.997 3.02028 5.98168
RightLeg  12.3922 6.18451 -0.11957
RightFoot  -10.2962 -0.0540486 -1.46606
RightToes  2.84633e-005 7.89722e-005 -0.000426369
Spine  2.0416 -0.849542 3.73534
Spine1  4.02684 -1.67241 3.70842
HEad  32.023 -6.52297 -14.3701
LeftShoulder1  -3.88251e-019 0 -3.92111e-022
LeftArm  -30.8073 -3.96269 -88.8414
LeftForeArm  36.1782 2.16131 -1.40545
LeftHand  -0.714001 -6.23598 7.44989
RightShoulder  7.45443e-017 -2.42657e-020 1.96277e-018
RightArm  -26.8763 -12.3575 71.5733
RightForeArm  29.6549 2.18873 2.65837
RightHand  -1.38645 9.74989 -10.9646
LeftUpLeg  -19.1619 3.66927 5.03397
LeftLeg  45.4153 10.9201 12.0254
LeftFoot  -12.6926 0.134576 4.92757
LeftToes  3.91355e-005 3.11907e-005 -4.10385e-006
198
root  6.82799 75.1847 -6.1076 -179.478 -2.27743 -177.131
RightUpLeg  -8.80912 2.60383 5.08097
RightLeg  11.9162 7.61919 0.0733382
RightFoot  -10.2623 -0.0568091 -1.36458
RightToes  2.84633e-005 7.89722e-005 -0.000426369
Spine  1.98245 -0.551418 3.32125
Spine1  3.96104 -1.19005 3.2963
HEad  31.6869 -7.67347 -13.7438
LeftShoulder1  -3.88251e-019 0 -3.92111e-022
LeftArm  -30.7566 -3.91492 -88.7535
LeftForeArm  36.5433 2.13744 -1.30995
LeftHand  -0.643131 -6.10713 6.81873
RightShoulder  7.45443e-017 -2.42657e-020 1.96277e-018
RightArm  -26.838 -12.8124 71.4077
RightForeArm  28.5919 2.97617 3.20465
RightHand  -1.59718 10.1745 -12.2426
LeftUpLeg  -20.4852 1.93885 4.22653
LeftLeg  40.6492 10.8514 10.2164
LeftFoot  -11.5856 0.0774548 4.18436
LeftToes  3.91355e-005 3.11907e-005 -4.10385e-006
199
root  6.65252 75.2268 -6.37004 -179.064 -1.89644 -177.605
RightUpLeg  -8.65451 2.58918 4.40926
RightLeg  11.6505 8.03903 -0.0871312
RightFoot  -10.5329 -0.0628376 -1.17612
RightToes  2.84633e-005 7.89722e-005 -0.000426369
Spine  1.89581 -0.524627 3.03884
Spine1  3.82377 -1.22598 3.28535
HEad  31.3441 -8.30381 -13.544
LeftShoulder1  -3.88251e-019 0 -3.92111e-022
LeftArm  -31.6866 -3.40002 -88.3034
LeftForeArm  35.6219 2.07778 -0.635438
LeftHand  -0.859653 -5.79922 9.22301
RightShoulder  7.45443e-017 -2.42657e-020 1.96277e-018
RightArm  -26.186 -12.808 71.1168
RightForeArm  28.3909 3.78741 3.7155
RightHand  -1.59506 10.2215 -12.1875
LeftUpLeg  -21.2755 0.646859 3.71122
LeftLeg  34.3314 8.39971 6.49559
LeftFoot  -10.9179 0.0533177 2.01102
LeftToes  3.91355e-005 3.11907e-005 -4.10385e-006
200
root  6.40529 75.2795 -6.68194 -178.78 -1.10021 -178.024
RightUpLeg  -8.27652 2.45448 3.60095
RightLeg  11.3081 8.97574 0.0630987
RightFoot  -10.8049 -0.0668641 -1.35113
RightToes  2.84633e-005 7.89722e-005 -0.000426369
Spine  1.898 -0.437262 2.53125
Spine1  3.84442 -1.07152 3.0242
HEad  30.8402 -8.75802 -13.002
LeftShoulder1  -3.88251e-019 0 -3.92111e-022
LeftArm  -32.1726 -2.67314 -87.3678
LeftForeArm  33.6844 2.04273 0.101943
LeftHand  -0.893529 -5.64109 9.70195
RightShoulder  7.45443e-017 -2.42657e-020 1.96277e-018
RightArm  -25.7658 -12.1457 71.2197
RightForeArm  29.101 3.9306 4.07629
RightHand  -1.61494 10.5132 -12.1214
LeftUpLeg  -20.8159 0.655435 3.09416
LeftLeg  26.9619 5.87941 3.57289
LeftFoot  -7.98122 0.0910998 -1.51561
LeftToes  3.91355e-005 3.11907e-005 -4.10385e-006
201
root  6.14303 75.3693 -7.06609 -178.744 -0.0540706 -178.367
RightUpLeg  -7.24537 2.172 2.85703
RightLeg  10.3793 10.3293 0.134583
RightFoot  -10.9284 -0.0698162 -1.14818
RightToes  2.84633e-005 7.89722e-005 -0.000426369
Spine  1.93547 -0.312318 1.93305
Spine1  3.91239 -0.778891 2.67257
HEad  30.9023 -8.92943 -12.4178
LeftShoulder1  -3.88251e-019 0 -3.92111e-022
LeftArm  -32.6301 -1.5868 -86.2744
LeftForeArm  32.0915 2.02353 0.713183
LeftHand  -0.731929 -6.06538 7.73689
RightShoulder  7.45443e-017 -2.42657e-020 1.96277e-018
RightArm  -25.5467 -11.4978 71.6124
RightForeArm  30.517 3.79798 4.74664
RightHand  -1.44558 10.2381 -11.08
LeftUpLeg  -18.8748 1.7732 2.463
LeftLeg  18.9574 2.79885 1.39929
LeftFoot  -2.63079 0.423909 -5.35724
LeftToes  3.91355e-005 3.11907e-005 -4.10385e-006
